<?xml version="1.0" encoding="UTF-8" standalone="no"?>
<!DOCTYPE svg PUBLIC "-//W3C//DTD SVG 1.1//EN" "http://www.w3.org/Graphics/SVG/1.1/DTD/svg11.dtd">
<svg width="100%" height="100%" viewBox="0 0 320 312" version="1.1" xmlns="http://www.w3.org/2000/svg" xmlns:xlink="http://www.w3.org/1999/xlink" xml:space="preserve" xmlns:serif="http://www.serif.com/" style="fill-rule:evenodd;clip-rule:evenodd;stroke-linejoin:round;stroke-miterlimit:2;">
    <g transform="matrix(1,0,0,1,-60,-804.023)">
        <g transform="matrix(-0.545246,0,0,0.802721,1901.88,749.881)">
            <path d="M3378.08,67.448L3378.08,418.695L3312.05,418.695L3231.36,456.068L2827.87,456.068C2818.14,456.068 2808.81,453.443 2801.93,448.77C2795.05,444.098 2791.19,437.761 2791.19,431.153C2791.19,358.113 2791.19,149.64 2791.19,149.64C2791.19,149.64 3047.95,149.223 3047.95,149.223C3048.12,149.223 3141.72,149.068 3224.28,148.932C3296.92,148.812 3360.22,115.279 3378.08,67.45C3378.08,67.449 3378.08,67.448 3378.08,67.448Z" style="fill:white;"/>
        </g>
    </g>
</svg>
